<svg version="1.1" xmlns="http://www.w3.org/2000/svg" xmlns:xlink="http://www.w3.org/1999/xlink" width="600.000000pt" height="143.000000pt" viewBox="0,0,256,61"><g fill="#ffffff" fill-rule="nonzero" stroke="none" stroke-width="1" stroke-linecap="butt" stroke-linejoin="miter" stroke-miterlimit="10" stroke-dasharray="" stroke-dashoffset="0" font-family="none" font-weight="none" font-size="none" text-anchor="none" style="mix-blend-mode: normal"><g transform="translate(0.13208,0.02533) scale(0.42667,0.42667)"><g transform="translate(0,143) scale(0.1,-0.1)"><path d="M895,1388c-289,-32 -522,-170 -617,-366c-30,-61 -33,-75 -33,-162c0,-74 4,-104 19,-134c47,-94 139,-141 271,-140c122,2 218,61 246,152c14,47 9,82 -13,96c-36,22 -54,-4 -74,-112c-8,-42 -71,-99 -123,-112c-193,-46 -296,189 -184,420c40,83 159,196 257,243c127,62 215,80 376,75c130,-3 139,-5 203,-36c120,-59 176,-158 164,-289c-14,-146 -124,-273 -275,-317c-42,-12 -54,-13 -58,-3c-6,17 69,244 103,311c14,28 37,68 50,89c30,47 24,56 -16,28c-102,-73 -194,-212 -320,-488c-149,-324 -213,-427 -316,-505c-66,-50 -133,-71 -225,-72c-80,0 -117,13 -157,56c-32,34 -43,71 -43,143c0,54 -3,66 -20,75c-50,27 -97,-35 -84,-110c23,-133 123,-193 319,-192c183,0 318,57 447,186c93,94 182,242 219,366c7,22 18,45 24,50c7,5 55,21 108,34c126,32 213,75 282,138c78,71 107,124 113,206c5,81 -8,136 -48,190c-63,87 -168,142 -319,166c-127,21 -187,24 -276,14z"></path><path d="M5595,923l-60,-138l-153,-3l-153,-3l-19,-45c-11,-25 -20,-50 -20,-55c0,-5 55,-9 123,-10c185,-2 176,9 111,-138c-30,-68 -54,-128 -54,-133c0,-5 30,-8 68,-6l67,3l59,137l60,138h152h152l21,49c11,27 21,52 21,55c0,3 -65,6 -145,6c-80,0 -145,4 -145,8c0,4 25,66 55,136c30,70 55,129 55,132c0,2 -30,4 -68,4h-67z"></path><path d="M4922,871c-38,-85 -42,-90 -74,-93c-42,-4 -54,-38 -13,-38c34,0 32,-7 -52,-172c-69,-137 -145,-233 -179,-226c-28,6 -21,31 45,175c73,159 85,198 68,232c-11,23 -19,26 -73,29c-57,3 -65,0 -109,-34c-48,-36 -52,-34 -30,19c6,15 0,17 -53,17h-60l-20,-48c-50,-116 -96,-209 -129,-261c-40,-64 -101,-131 -119,-131c-34,0 -28,18 120,358l36,83l-66,-3l-66,-3l-65,-144c-70,-157 -103,-211 -158,-259c-34,-31 -55,-39 -68,-26c-8,8 12,61 78,204c32,69 68,149 81,178l24,52h-64h-65l-28,-52c-30,-56 -85,-94 -117,-82c-9,3 -28,30 -42,59c-31,67 -73,90 -149,82c-115,-12 -188,-80 -270,-251c-35,-73 -69,-127 -96,-154c-43,-44 -79,-55 -79,-25c0,9 30,82 66,162c76,167 87,218 55,250c-36,36 -113,22 -187,-34c-39,-30 -44,-31 -44,-7c0,10 -7,28 -16,40c-27,38 -103,24 -179,-34c-39,-29 -42,-27 -20,16l16,30h-61h-61l-15,-37c-9,-21 -47,-101 -84,-179c-53,-108 -80,-150 -114,-182c-94,-87 -94,-50 4,178c45,105 79,197 77,205c-7,16 -121,30 -172,21c-56,-11 -125,-44 -182,-87c-56,-42 -100,-65 -108,-57c-3,3 4,25 15,49c48,107 -1,132 -103,54c-51,-39 -55,-39 -31,6l15,30l-61,-3l-60,-3l-64,-141c-34,-78 -80,-167 -101,-198c-45,-68 -100,-115 -117,-98c-13,13 -2,44 95,266c53,121 66,160 56,166c-21,14 -125,22 -171,15c-57,-10 -149,-57 -199,-102c-130,-117 -210,-332 -146,-390c12,-11 32,-24 44,-27c35,-11 101,12 142,50c21,18 41,34 45,34c3,0 6,-13 6,-30c0,-39 37,-65 82,-56c18,3 57,24 86,46c54,41 61,42 37,0c-8,-14 -14,-29 -15,-33c0,-4 28,-7 61,-5l62,3l76,168c42,93 91,186 109,208c36,42 60,53 42,19c-6,-12 -10,-33 -8,-48c2,-21 9,-28 31,-30c16,-2 42,1 58,7c16,5 29,8 29,7c0,-2 -16,-30 -35,-62c-42,-69 -55,-112 -55,-177c0,-62 12,-83 56,-97c46,-16 106,6 154,55c41,43 50,44 50,6c0,-32 18,-56 51,-66c30,-10 104,21 133,56c32,37 41,37 21,-1c-24,-46 -20,-50 45,-50h61l26,63c70,164 153,315 193,351c40,36 64,44 75,26c4,-6 -33,-101 -80,-213c-48,-111 -89,-208 -92,-215c-4,-9 12,-12 60,-12h64l48,108c82,184 124,261 165,302c45,45 80,53 80,19c0,-12 -31,-92 -70,-178c-77,-173 -86,-219 -48,-245c52,-36 126,-10 206,73l52,55v-32c0,-101 129,-146 247,-87c93,47 181,172 199,284c6,40 8,41 44,41c21,0 46,3 55,6c13,5 10,-6 -13,-52c-86,-170 -104,-252 -63,-285c46,-38 113,-18 189,54l42,41v-40c0,-92 88,-101 179,-18c43,38 50,36 26,-6c-8,-14 -14,-28 -15,-32c0,-5 28,-8 63,-8h63l34,78c69,160 151,311 186,341c35,31 67,40 79,21c4,-6 -25,-79 -64,-163c-39,-85 -74,-174 -77,-199c-6,-41 -4,-47 21,-66c15,-12 37,-22 49,-22c36,1 100,35 146,79c24,22 44,41 44,41c1,0 0,-20 -2,-45c-8,-99 20,-135 106,-135c47,0 67,6 103,28c49,31 129,117 129,138c0,24 -18,15 -46,-21c-57,-75 -140,-115 -172,-83c-29,29 -12,88 93,326l67,152h37c35,0 61,14 61,32c0,4 -16,8 -35,8c-19,0 -35,4 -35,9c0,5 16,46 35,90l34,81h-63h-63zM1630,744c0,-3 -33,-74 -73,-157c-83,-171 -140,-247 -187,-247c-52,0 -48,43 15,176c50,103 121,188 180,215c41,19 65,24 65,13zM2440,739c0,-19 -119,-269 -149,-313c-41,-59 -79,-88 -110,-84c-24,3 -26,7 -24,47c3,54 54,164 114,245c54,72 169,144 169,105zM3630,730c27,-50 -74,-311 -150,-391c-42,-45 -75,-50 -91,-15c-35,76 141,426 214,426c9,0 21,-9 27,-20z"></path></g></g></g></svg>